<svg xmlns="http://www.w3.org/2000/svg" viewBox="0 0 740.47 164.5"><defs><style>.cls-1{fill:#f8f5f1;}.cls-2{fill:#9cc;}.cls-3{fill:#4d4d4d;}.cls-4{fill:#897373;}.cls-5{fill:#ff5757;}</style></defs><title>資產 5</title><g id="圖層_2" data-name="圖層 2"><g id="圖層_1-2" data-name="圖層 1"><rect class="cls-1" width="740.47" height="164.5" rx="12" ry="12"/><rect class="cls-2" x="394.75" y="75.8" width="45.63" height="45.63"/><path class="cls-3" d="M206,140.15l-8.93-4.8a32.06,32.06,0,0,1-13.61-14q-4.69-9.19-4.69-22.2V69q0-13,4.69-22.2a32.31,32.31,0,0,1,13.61-14q8.93-4.83,21.48-4.84a38.07,38.07,0,0,1,18.53,4.46,36.62,36.62,0,0,1,13.5,13,56.06,56.06,0,0,1,7.37,20.54H236.44a27.73,27.73,0,0,0-3.74-9.31,17.9,17.9,0,0,0-6.13-5.89,16,16,0,0,0-8-2A19.37,19.37,0,0,0,208.61,51,15.39,15.39,0,0,0,202.37,58a25.8,25.8,0,0,0-2.15,11V99.16a25.52,25.52,0,0,0,2.15,11,15.52,15.52,0,0,0,6.24,6.92,19.47,19.47,0,0,0,9.91,2.38,16.6,16.6,0,0,0,8.17-2,17.09,17.09,0,0,0,6.12-5.86,26.9,26.9,0,0,0,3.63-9.37h21.48a56.78,56.78,0,0,1-7.45,20.53,36.6,36.6,0,0,1-13.46,13,37.83,37.83,0,0,1-18.49,4.46Z"/><path class="cls-3" d="M275.31,29.06H296V139H275.31Zm9.61,45.45H349v20H284.92Zm50.59-45.45h20.72V139H335.51Z"/><path class="cls-3" d="M397.3,135.35a31.91,31.91,0,0,1-13.69-14q-4.69-9.19-4.69-22.12V29.06h20.72V99.77q0,9.45,5.07,14.67T419,119.66q9.3,0,14.41-5.22t5.1-14.67V29.06h20.72V99.24q0,12.93-4.72,22.12a32.14,32.14,0,0,1-13.77,14q-9,4.8-21.74,4.8T397.3,135.35Z"/><path class="cls-3" d="M480.41,29.06h25.33l40.91,84.24-1.81,2V29.06h19.81V138.94H539.17L498.41,56l1.81-2v84.93H480.41Z"/><path class="cls-3" d="M667.05,77.53V99a45.4,45.4,0,0,1-4.95,21.59,35.06,35.06,0,0,1-14,14.44,42.1,42.1,0,0,1-21,5.11,45.18,45.18,0,0,1-21.21-4.8,34.43,34.43,0,0,1-14.22-13.58,40.18,40.18,0,0,1-5-20.34V69a45.25,45.25,0,0,1,4.95-21.56,35.07,35.07,0,0,1,14-14.4,42.16,42.16,0,0,1,21-5.11,40.93,40.93,0,0,1,18.15,4,37.8,37.8,0,0,1,13.88,11.46,42.08,42.08,0,0,1,7.52,17.16H643.76a14.58,14.58,0,0,0-3.75-6,17.69,17.69,0,0,0-6.12-3.86,20.64,20.64,0,0,0-7.3-1.32,19.15,19.15,0,0,0-9.72,2.42,16.49,16.49,0,0,0-6.5,6.88A22.1,22.1,0,0,0,608.06,69v32.44a17.29,17.29,0,0,0,2.35,9.07,15.43,15.43,0,0,0,6.65,6,22.27,22.27,0,0,0,10,2.12,20.13,20.13,0,0,0,9.8-2.3,15.6,15.6,0,0,0,6.46-6.7,22.14,22.14,0,0,0,2.27-10.36V97.5H628.93v-20Z"/><rect class="cls-4" x="36.38" y="31.15" width="33.53" height="114.13"/><circle class="cls-5" cx="116.05" cy="57.79" r="27.4"/><rect class="cls-2" x="91.37" y="95.46" width="49.35" height="49.35" rx="7.5" ry="7.5"/><circle class="cls-5" cx="696.65" cy="127.13" r="14.18"/><rect class="cls-4" x="275.24" y="29.06" width="20.75" height="109.96"/></g></g></svg>